<svg version="1.0" xmlns="http://www.w3.org/2000/svg" width="682.667" height="682.667" viewBox="0 0 512 512"><path fill="#ffb901" d="M287.5 34.4c-16.9 4.1-33.2 17-40.5 32.1-6.3 12.8-8 29.3-4.5 42.5 3.3 12.6 7.7 19.1 25 37 9.2 9.6 17.2 18.7 18.7 21.6 5.6 10.4 7.2 22.7 4.3 33.9-3.7 14-10.4 23.7-22.7 33-14.2 10.6-20.6 18.9-25.4 33.1-3.1 9.2-3.8 23.1-1.5 32.4 9.3 38.4 51.7 58 87.4 40.3 14.1-7.1 27.1-23.2 31.1-38.9 2-7.9 2.1-22.2.1-29.9-3.8-14.7-10.7-24.6-24.8-35.8-11.6-9.3-16.1-14.3-19.8-22-4-8.5-5.2-15.6-4.7-26.7.8-15.1 2.4-17.8 23.6-39.4 14.2-14.5 18.5-19.5 21.4-25.1 16.4-31.5 3.6-69.2-28.3-83.9-4.1-1.8-9.8-3.9-12.7-4.5-6.8-1.4-20.3-1.3-26.7.3z"/><path fill="#0dab18" d="M194 110.7c-3.7 1.3-10.4 7.4-38.3 35.2-23.9 23.8-34.4 34.9-35.9 38.1-3 6.1-3.5 14.4-1.3 21.2 1.6 4.9 4.3 7.9 33 36.8 36.3 36.6 37 37.5 37 51 0 13.6-.2 13.9-35.6 49.5-29.9 30.1-30.8 31.2-32.4 36.9-1.9 6.6-1.5 11.8 1.5 18.1 1.2 2.6 14.6 16.7 37.2 39.2 34.6 34.4 35.4 35.2 41.2 36.8 6.6 1.9 12.6 1.5 17.9-1.1 1.7-.9 16.7-15 33.2-31.4 34.8-34.5 36.3-35.5 50-35.5 13.4 0 15.4 1.5 47.6 33.2 29.9 29.5 32.1 31.2 42 31.3 12.1 0 12 .1 49.5-37.4 21.9-21.9 34.8-35.5 36-38.1 2.8-6 2.6-17.6-.5-23.5-1.5-2.8-12.6-14.8-30.1-32.5-25.6-25.8-27.9-28.5-30-34-2.9-7.8-2.5-18.7.9-25.5 1.5-3 12.5-14.8 32.1-34.5s30.5-31.5 32-34.5c3.3-6.5 3.1-15.2-.5-21.8-1.9-3.4-13.5-15.7-37.4-39.5-33.9-33.8-34.7-34.5-40.5-36.2-6.8-2-12.7-1.5-18.4 1.4-2 1.1-16.4 14.7-31.8 30.3-32.1 32.2-31.9 32-31.9 46.8 0 15.4 4.9 24.7 17.6 33.6 4.5 3.2 10.6 8.2 13.5 11.2 18.4 18.9 25.1 45.8 17.8 71.2-5.1 17.8-19.4 34.9-36.1 43.2-12.7 6.4-21.4 8.2-36.7 7.6-10.3-.5-13.3-1-20.5-3.7-10.4-3.8-19-9.3-26.4-16.9-14.8-14.9-21.1-30.1-21.1-50.7 0-13.1 1.7-20.6 7.4-32 5.4-11 12.2-19 23.3-27.3 11-8.2 14-11.6 17.8-19.7 5.3-11.4 5.7-24.1.9-33.7-2.7-5.3-54.5-57.8-60.9-61.5-5.5-3.3-16.3-4.1-23.1-1.6z"/><path fill="#f34137" d="M86.8 233.5c-20.7 5.2-38.8 23.3-44.2 44.2-1.8 7.1-2.1 20.9-.5 28.5.6 2.9 2.9 9.1 5.1 13.7 3.2 6.7 5.6 10.1 11.7 16 13.3 13.2 27.4 18.7 46.1 17.9 11.6-.6 19.8-3 29.3-8.8 7.3-4.4 39.8-36.3 42.7-42 3.5-6.6 3.3-14-.4-20.5-3.9-6.8-34.5-37.1-41.9-41.4-10.7-6.3-17.9-8.3-30.7-8.7-7.7-.2-13.4.1-17.2 1.1z"/></svg>